/* XPM */
static char *dummy[]={
"64 64 157 2",
"#2 c #1e1e1e",
"#v c #1e1e1f",
".c c #1f1f1f",
"#5 c #1f201f",
".d c #20201f",
".b c #202020",
"a# c #202120",
"as c #212021",
"#6 c #212120",
".e c #212121",
".5 c #212122",
"#8 c #212221",
"#7 c #222121",
"#i c #222122",
".4 c #222221",
".h c #222222",
"#e c #222223",
"ao c #222322",
"ar c #232222",
"#4 c #232223",
"#J c #232322",
".u c #232323",
".I c #232324",
"aq c #232423",
"#D c #232424",
"#A c #242323",
".A c #242324",
"#h c #242423",
".f c #242424",
".U c #242425",
"av c #242525",
"#X c #252424",
"#z c #252425",
".j c #252525",
"#. c #252526",
"#q c #252626",
".J c #262526",
"#a c #262626",
".L c #262627",
"aA c #262727",
"#N c #272626",
"#d c #272627",
".2 c #272727",
".9 c #272728",
".w c #282728",
".l c #282828",
".k c #282829",
".r c #292829",
"az c #29282a",
".T c #292929",
".E c #29292a",
".q c #2a292a",
".K c #2a2a2a",
"#f c #2a2a2b",
"#s c #2b2a2b",
"am c #2b2b2a",
".i c #2b2b2b",
".g c #2b2b2c",
".R c #2c2b2c",
"#P c #2c2b2d",
".N c #2c2c2c",
".P c #2c2c2d",
".V c #2d2c2d",
".8 c #2d2d2d",
".3 c #2d2d2e",
"ab c #2e2d2e",
"aw c #2e2d2f",
"af c #2e2e2e",
"#k c #2e2e2f",
".0 c #2f2e2e",
".p c #2f2e2f",
".X c #2f2f2f",
"#b c #2f2f30",
"#c c #302f30",
"#V c #303030",
".t c #303031",
"#o c #313031",
"#3 c #313032",
"#S c #313131",
".F c #313132",
"ap c #313133",
"#G c #323132",
"#Q c #323133",
"al c #323232",
"Qt c #323233",
"#w c #333233",
"#r c #333234",
"#B c #333333",
".H c #333334",
"#I c #343334",
".Z c #343335",
".6 c #343434",
".o c #343435",
".O c #353435",
".Y c #353436",
"ah c #353535",
".a c #353536",
".7 c #363536",
".# c #363537",
"#C c #363636",
"#g c #363637",
".1 c #373637",
"#l c #373638",
".v c #373738",
"#0 c #373739",
"#9 c #383639",
"#R c #383738",
".W c #383739",
"#t c #383839",
"#T c #393839",
"## c #39383a",
".Q c #39393a",
"ai c #3a393a",
".B c #3a393b",
"#u c #3a3a3b",
"#1 c #3a3b3b",
"#j c #3b3a3b",
".z c #3b3a3c",
"aa c #3b3a3d",
".M c #3b3b3c",
"#M c #3b3b3d",
"#m c #3c3b3c",
".S c #3c3b3d",
".n c #3c3c3d",
"ac c #3d3b3d",
"#W c #3d3b3e",
"#x c #3d3c3d",
".s c #3d3c3e",
".m c #3d3d3e",
"#L c #3d3d3f",
"#O c #3e3c3f",
"ad c #3e3d3e",
".x c #3e3d3f",
"#Z c #3e3d40",
"#H c #3e3e3f",
"#E c #3f3e3f",
".D c #3f3e40",
"#Y c #3f3f40",
"#U c #403e40",
"#F c #403e41",
"ak c #403f40",
".G c #403f41",
"a. c #404041",
"an c #404042",
"#y c #413f41",
".C c #413f42",
".y c #414042",
"ay c #414142",
"#K c #424042",
"at c #424043",
"#p c #424143",
"#n c #424144",
"au c #424243",
"ax c #424244",
"ag c #434144",
"ae c #434244",
"aj c #444345",
"Qt.#.a.a.a.a.a.a.a.a.a.a.a.a.a.a.a.a.a.a.a.a.a.a.a.a.a.a.a.a.a.a.a.a.a.a.a.a.a.a.a.a.a.a.a.a.a.a.a.a.a.a.a.a.a.a.a.a.a.a.a.a.a.a",
".b.b.b.b.b.b.b.b.b.b.b.c.b.b.b.b.b.b.b.b.b.b.b.b.b.b.b.b.b.b.b.b.c.d.b.b.b.b.b.b.b.b.b.b.b.b.b.b.b.b.b.b.b.c.c.b.b.b.b.b.b.b.b.b",
".e.e.e.e.e.e.e.e.e.e.f.g.h.e.e.e.e.e.e.e.e.e.e.e.e.e.e.e.e.e.e.e.i.j.e.e.e.e.e.e.e.e.e.e.e.e.e.e.e.e.e.e.e.k.k.e.e.e.e.e.e.e.e.e",
".e.e.e.e.e.e.e.e.e.b.l.m.h.e.e.e.e.e.e.e.e.e.e.e.e.e.e.e.e.e.e.e.n.i.b.e.e.e.e.e.e.e.e.e.e.e.e.e.e.e.e.e.c.o.o.c.e.e.e.e.e.e.e.e",
".e.e.e.e.e.e.e.e.e.h.p.m.q.h.e.e.e.e.e.e.e.e.e.e.e.e.e.e.e.e.e.r.s.t.u.e.e.e.e.e.e.e.e.e.e.e.e.e.e.e.e.e.j.v.v.j.e.e.e.e.e.e.e.e",
".e.e.e.e.e.e.e.e.b.w.x.y.z.A.b.e.e.e.e.e.e.e.e.e.e.e.e.e.e.e.h.B.C.D.E.b.e.e.e.e.e.e.e.e.e.e.e.e.e.e.e.d.F.G.G.H.c.e.e.e.e.e.e.e",
".e.e.e.e.e.e.e.e.I.J.K.n.j.L.h.e.e.e.e.e.e.e.e.e.e.e.e.e.e.h.L.f.M.N.j.f.e.e.e.e.e.e.e.e.e.e.e.e.e.e.e.j.f.O.O.A.j.e.e.e.e.e.e.e",
".e.e.e.e.e.e.e.b.P.Q.R.S.T.z.U.b.e.e.e.e.e.e.e.e.e.e.e.e.e.u.z.E.z.V.W.X.b.e.e.e.e.e.e.e.e.e.e.e.e.e.b.Y.t.Z.o.0.1.e.e.e.e.e.e.e",
".e.u.h.e.e.e.e.h.f.R.x.y.S.k.u.e.e.e.e.e.h.h.h.u.e.e.e.e.e.u.2.z.C.D.3.f.h.e.e.e.e.4.u.5.u.e.e.e.e.e.u.f.6.G.G.7.f.u.e.e.e.e.e.u",
".e.v.P.e.e.e.b.8.7.u.3.m.9#.###a.b.e.e.e.o#b#c.#.e.e.e.b.f.B#a#d.n.X#e.Z#b.b.e.e.e#f.W.2.B.j.e.e.e.e#g.p.u.1.1#h.P.W#i.e.e.e.U.z",
".e#j.G#k.e.e.e.u.t#l.r#m.j.B#f.e.e.e.bQt#n#o.F#p.o.h.e.e.h.q.B#q.z.q.a#r.A.e.e.b#s.G.S.w.y.S.j.b.e.e.j#l.3#r.H.i#t#d.e.e.e.u#u#p",
".e#a.S.C.3#v.3#w#e#c#x#y#j.N#e.W.w.b.H.y#g#z#A#B#p#C.e#a###D#f.B.G.s#o.I.t#c.c.i#E.x.r#i.P.y#m.j.e.a.T.J.a.D.D.1#a.9#l.e.f##.y#k",
".1.w.2.B#F.P.j.6#G.h#G#H.P.u.1#c.f#I.y#g.u.X.X#J.Z#K.#.u.p.W.u.i#L.H.h.t.Y.j.g.D#M.l#a.a.u.8#F.S.9.T.W.g.j.Q.Q#N.k###s#a.z.y.3.h",
".N.f.t#F#t.2.b.j.H.H.w#m.u#l#b#i.e#s.x#O.E.2.9.l.S#E#P.e.h#k.v.I#u.r#G.Y#a.c#a.1.G#G#A.i.U#l.C.F.f.b.q#l.K#QQt.l#R.g.b.u.t.y.v.u",
".b#S.y.W#a.b.e.b#a#I#T#U.1.F.h.b.e.b.g.s.s.T#s.s.m.i.b.e.e.e.t#g.D###I.9.b.e.b#a.W.y#o.f#t#p#V.e.b.e.b#s.a#W.s.7.N.b.e.b.h#S.y#l",
".e.S##.2.b.e.e.e.b#X#g#Y#w.h.b.e.e.e.b#f#ZQt#w#F.N.b.e.e.e.e.e.F.D#R#..b.e.e.e.b.J#0.s.r.yQt.h.b.e.e.e.c.i.n.S.N.c.e.e.e.e.e#S#p",
".e#b.L.b.e.e.e.e.e.c.2.n.e.e.e.e.e.e.e.b.N#f#s.3.d.e.e.e.e.e.e.b#1.T.c.e.e.e.e.e.b.j#c.j.t.5.e.e.e.e.e.e#2.H.H#2.e.e.e.e.e.e.e#3",
".e.b.e.e.e.e.e.e.e.f#I#Y#b#4.e.e.e.e.e.e.b.b.b.b.e.e.e.e.e.e.h#k.D.a.j.e.e.e.e.e.e.e.b.e.b.e.e.e.e.e.e.e.T.z.z.q.e.e.e.e.e.e.e.b",
".e.e.e.e.e.e.e.e.b.w#t.W#l.A.b.e.e.e.e.e.e.e.e.e.e.e.e.e.e.e.h#g.W##.k.b.e.e.e.e.e.e.e.e.e.e.e.e.e.e.e.b#b####.F.b.e.e.e.e.e.e.e",
".b.b.b.b.b.b.b.b.b.b#5#5.b.b.b.b.b.b.b.b.b.b.b.b.b.b.b.b.b.b.b#5#5#5.b.b.b.b.b.b.b.b.b.b.b.b.b.b.b.b.b.b.b.b.b.b.b.b.b.b.b.b.b.b",
".q.i.i.i.i.i.i.i.i.i.i.i.i.i.i.i.i.i.i.i.i.i.i.i.i.i.i.i.i.i.i.i.i.i.i.i.i.i.i.i.i.i.i.i.i.i.i.i.i.i.i.i.i.i.i.i.i.i.i.i.i.i.i.i",
"#t.x.s.s.s.s.s.s.s.s.s.s.s.s.s.s.s.s.s.s.s.s.s.s.s.s.s.s.s.s.s.s.s.s.s.s.s.s.s.s.s.s.s.s.s.s.s.s.s.s.s.s.s.s.s.s.s.s.s.s.s.s.s.s",
"#e.u.u.u.u.u.u.u.u.u.u.u.u.u.u.u.u.u.u.u.u.u.u.u.u.u.u.u.u.u.u.u.u.u.u.u.u.u.u.u.u.u.u.u.u.u.u.u.u.u.u.u.u.u.u.u.u.u.u.u.u.u.u.u",
".e.e.e.e.e.e.e.e.e.e.b.b.b.b.e.e.e.e.e.e.e.e.e.e.e.e.e.e.e.e.b.b.b.e.e.e.e.e.e.e.e.e.e.e.e.e.e.e.e.e.e.e.b.b.b.b.e.e.e.e.e.e.e.e",
"#6.e.e.e.e.e.e.e.b.b.j#a#a.f.e.e.e.e.e.e.e.e.e.e.e.e.e.e.e.h.2.u.L.e.b.e.e.e.e.e.e.e.e.b.e.e.e.e.e.e.b.b.f#.#..f.e.e.e.e.e.e.e.e",
".2.e.e.e.e.e.e.h.E.h.K.a.o.9.b.e.e.e.e.e.e.e.e.e.e.e.e.e.e.h.H#r#V.b.T.f.e.e.e.e.e.e#a.r.e.e.e.e.e.e.r.h.l.o#I.w.b.e.e.e.e.e.e.e",
".E.b.e.e.e.e.e.u.z.j.c.K.o#..b.e.e.e.e.e.e.e.e.e.e.e.e.e.e.h.F#o#7.b.B.T.b.e.e.e.e.b.k.R.b.e.e.e.e.e##.9.c.K.O.J.b.e.e.e.e.e.e.e",
"#f.e.e.e.e.e.e#8.p#G.h.b#9.P.b.e.e.e.e.e.e.e.e.e.e.e.e.e.e.u.B.u.b.8#r.f.b.e.e.e.e.b.T.8.b.e.e.e.e.e.8.o.u.c.O.V.b.e.e.e.e.e.e.e",
".z.X#I.2.b.e.e.e.b.p.z#u.D.S#a.u.A.h.e.e.e.h.e.e.e.h.f.u.u#g.G.z.z#I.u.b.e.e.e.h#w.g.s.G.V.H.j.b.e.e.b.g.z.B.x.S.w.h.u.h.e.e.e.h",
"Qt.o#G#e.b.e.e.e.e.h#d#d#a.z.D#E#x.g.b.b.u#t.r.b.b#.#u.x.xa..i#a.2.ua#.e.e.e.ea#.N#l.O#l.Y.t.e.e.e.e.e.e.L.2#aaa.D.x.mab.b.b.u#l",
".t.H.z#b.e#6.b.e.e.e.b.b#5.B.y.z#c.e.e.j#R.sac.K.e.e.K.B.Da.#a.c.b.e.e.e.e.b.e.T#j.H.Z.H#r.z.8.e.b.b.e.e.b.b.b.B#p#m.H.h.e.f.#.s",
".F.Z.D.1.h.l.E.c.b.b.b#5.i.D.S.h.e.e.b.T.x#t.D#3.e.e.e.b.o#p.F#6.b.b.b.c.f.R.b#c.D.#.H.o.o.D.O.e.k.l.c.b.b.c.K#H.D.j.b.e.b.w.s#T",
"#o.o#r.u.c#b.s.Z.o.o.o.Zadae.M.h.e.e.e.b.l.s.X.e.e.e.e.b.o#p.G.a.o.o.o.Z#T#R.b.baf.7#I.o.O#Q.h#5.t.S.Z.o.o.Z.s#p.D.j.b.e.e.b.2.S",
".B#w.Y#a.b.f.1ae#p#p#pae#p#p.n.f.h.e.e.e.b#a.e.e.e.e.h.h.a#p#pag#p#p#pae#E.l.e.hQt#o.S.D#3.o.f.b.U.Qae#p#pae#p.y.G.2.e.e.e.e.b.J",
".F.I.J.u.e.d#o#p.y#p.G.s.s.s.S.z#o.b.e.e.e.b.e.e.e.b.K.z.z.m.s.s.D#p.y#p#m.e.e.e#a.h.t.O#4.J.h.e.c.a#p#p.y.s.s.s.s.z.o.e.e.e.e.b",
".L.b.b.e.b.c#o#p.y#x#I.u.u.u.h.p.Z.b.e.e.e.e.e.e.e.b.N.7.h.u.u.haf.S.G#p#m.e.b.b.b.b.j.l.b.b.e.b.cah#p.s.#.u.u.u.h.V.v.e.e.e.e.e",
".i.e.e.u#b.taiaj.G.j.b.e.e.e.c.R.Y.b.e.e.e.e.e.e.e.b.8.o.c.e.e.e.e.e.Bajak.F#o#a.b.b.Eab.b.b.u#b.t.S#p.L.b.e.e.e.c.q#t.e.e.e.e.e",
".e.e.b#a.D.Hal.F.t.u.b.e.e.b#..O#s.e.e.e.e.e.e.e.e.e#a.O#f.b.e.e.e.e.3#G#G#G.S.3.b.e.e.e.e.b.wad#w#G#S.I.b.e.ea#.u#I.8.e.e.e.e.e",
".e.e.h#I.N.b.b.b.b.e.e.e.e.e.f.T.b.e.e.e.e.e.e.e.e.e.b#d.2.e.e.e.e.e.b.b.b.c.L.#.9.b.e.e.e.u.a.q.b.b.b.e.e.e.e.e.u.q.e.e.e.e.e.e",
".e.e.h.2.e.e.e.e.e.e.e.e.e.e.e.b.e.e.e.e.e.e.e.e.e.e.e.b.b.e.e.e.e.e.e.e.e.e.b.L.I.e.e.e.e.h.2.e.e.e.e.e.e.e.e.e.e.b.e.e.e.e.e.e",
".e.e.e.b.e.e.e.e.e.e.e.e.e.e.e.e.e.e.e.e.e.e.e.e.e.e.e.e.e.e.e.e.e.e.e.e.e.e.e.b.b.e.e.e.e.e.b.e.e.e.e.e.e.e.e.e.e.e.e.e.e.e.e.e",
".u.u.u.u.u.u.u.u.u.u.u.u.u.u.u.u.u.u.u.u.u.u.u.u.u.u.u.u.u.u.u.u.u.u.u.u.u.u.u.u.u.u.u.u.u.u.u.u.u.u.u.u.u.u.u.u.u.u.u.u.u.u.u.u",
"#t.x.s.s.s.s.s.s.s.s.s.s.s.s.s.s.s.s.s.s.s.s.s.s.s.s.s.s.s.s.s.s.s.s.s.s.s.s.s.s.s.s.s.s.s.s.s.s.s.s.s.s.s.s.s.s.s.s.s.s.s.s.s.s",
".q.i.i.i.i.i.i.i.i.i.i.i.i.i.i.i.i.i.i.i.i.i.i.i.i.i.i.i.i.i.i.i.i.i.i.i.i.i.i.i.i.i.i.i.i.i.i.i.i.i.i.i.i.i.i.i.i.i.i.i.i.i.i.i",
".b.b.b.b.b.b.b.b.b.b.b.b.b.b.b.b.b.b.b.b.b.b.b.b.b.b.b.b.b.b.b.b.b.b.b.b.b.b.b.b.b.b.b.b.b.b.b.b.b.b.b.b.b.b.b.b.b.b.b.b.b.b.b.b",
".e.e.e.e.e.e.e.e.e.b.2.o.h.e.e.e.e.e.e.e.e.e.e.e.e.e.e.e.e.e.e.h.H.l.b.e.e.e.e.e.e.e.e.e.e.e.e.e.e.e.e.e.b.X.X.b.e.e.e.e.e.e.e.e",
".e.e.e.e.e.e.e.e.e.b.l.m.h.e.e.e.e.e.e.e.e.e.e.e.e.e.e.e.e.e.e.e.nam.b.e.e.e.e.e.e.e.e.e.e.e.e.e.e.e.e.e.c.o.o.c.e.e.e.e.e.e.e.e",
".e.e.e.e.e.e.e.e.b.J.v#Y.Z.u.e.e.e.e.e.e.e.e.e.e.e.e.e.e.e.e.h#r.D#T.2.b.e.e.e.e.e.e.e.e.e.e.e.e.e.e.e.b.P.s.sab.b.e.e.e.e.e.e.e",
".e.e.e.e.e.e.e.e.b#z.v#Y.H.h.b.e.e.e.e.e.e.e.e.e.e.e.e.e.e.e.eQt.D#T#q.b.e.e.e.e.e.e.e.e.e.e.e.e.e.e.e#5.g.s.s.V.c.e.e.e.e.e.e.e",
".e.e.e.e.e.e.e.e.L.i.w#m.u.V.u.e.e.e.e.e.e.e.e.e.e.e.e.e.e.h.8#e.z.T.K.l.e.e.e.e.e.e.e.e.e.e.e.e.e.e.e#s#a#r.H.f.i.e.e.e.e.e.e.e",
".e.b.e.e.e.e.e.b.T.W#r.x#S#l.u.b.e.e.e.e.b.b.b.b.e.e.e.e.e.h#g#3#O.Z#l.g.b.e.e.e.e.e.b.e.b.e.e.e.e.e.b.t.o####.H#G.b.e.e.e.e.e.b",
".e.E.f.b.e.e.b#a.k#a.Man.W.A#f.u.e.e.e.b.9.L#d.k.b.e.e.e.h.g.u#l.G#x.2.9.2.b.e.e.b.I.q.u#f.e.e.e.e.e#f.j#k.D.D.t.I#s.e.e.e.e.e#f",
".e.M.H.f.b.e.b.i#R.l.l.Sao.N##.j.b.e.b.f.Qap#Q.S.L.b.e.baq##.8.h.M.K.L#l.3.b.e.b.h.t.S.l.D.R#8.e.e.b.O.o.u.H.HarQt#gas.e.e.e.T.G",
".b.7#p.Z.u.b.f#z#f.Q.p#x.N.B.U#a.u.b#z#tat.3aba.#u#a.b.h.2.u.B.P.S#c.W.3.f.j.b.h#Gau#l.J.s.y#f.e.e.L.h#rQt.##g#o.O.h#d.e.e.E.D.x",
".L.f.#at.H.haf#l.f.q.x.y.z#..2.z.r#z.B.C#b.jav.8.G#m#a#a#m.E.f.B.C.D#f.f.a#c.h.F.y#R.U#a.9.S.D.i.u#g#b.uQt.G.G#I.uaw.W.h.K.D.s.2",
".B.r.f#tat#b.b.X#R.u#s.n.f#a.z.r.h#RaxQt.bQtQt.e#G#p###8.2.S.2.u.M.N.h.#.F.b#kay.Q.f.l.Q.u.K.D.D.k.h#T.t.e.a.a.e#k.B.u#a.D.C.T.e",
".u.A.W#p.F.e.e.h#b#t#s.S.l#j.r.e.e#z.Q.y.t.f.f.p.y#u.A.e.e.l#u.k.M.P#l.F.h.b.h#V.y#T#z#z.k#H.D.l.e.e.A#g#b.Z.o.3#R.j.e.e.T.x.x.l",
".e.1.yQt.u.e.e.b.h.3.x.y.S.q.e.e.e.e.f.v.y#k#kan##.j.e.e.e.e.l.z.C.D#k.u.b.e.b.h#o#p.W#d.x.G.q.e.e.ea#.f.o.G.G.7.f.e.e.e.e.k.x.D",
".e.z#3#e.b.e.e.e.b.eaf.m.T.e.e.e.e.e.b.f##.F#G.z.f.b.e.e.e.e.e.w.n#V.h.b.e.e.e.b.h#b.S.l.xaz.e.e.e.e.e.b.f.v.v.U.b.e.e.e.e.e.l.G",
".e.L.u.b.e.e.e.e.e.b.l.n.h.e.e.e.e.e.e.baA#a#z.J.b.e.e.e.e.e.e.e.M.K.b.e.e.e.e.e.b.u.T.u.2.e.e.e.e.e.e.e.c.o.o.c.e.e.e.e.e.e.e.E",
".e.b.e.e.e.e.e.e.b.w.S.y##.A.b.e.e.e.e.e.b.b.b.b.e.e.e.e.e.e.h.W.y.s.k.b.e.e.e.e.e.e.b.e.b.e.e.e.e.e.e.b#b.G.G#G.b.e.e.e.e.e.e.b",
".e.e.e.e.e.e.e.e.e.U.3.8.V#4.e.e.e.e.e.e.e.e.e.e.e.e.e.e.e.e.h.P.V.3.j.e.e.e.e.e.e.e.e.e.e.e.e.e.e.e.e.e.k.3.3.q.e.e.e.e.e.e.e.e",
".b.b.b.b.b.b.b.b.b.d.c.c.c.b.b.b.b.b.b.b.b.b.b.b.b.b.b.b.b.b.b.c.c.c#5.b.b.b.b.b.b.b.b.b.b.b.b.b.b.b.b.b.c.c.c.c.b.b.b.b.b.b.b.b",
".H#R#l#l#l#l#l#l#l#l#l#l#l#l#l#l#l#l#l#l#l#l#l#l#l#l#l#l#l#l#l#l#l#l#l#l#l#l#l#l#l#l#l#l#l#l#l#l#l#l#l#l#l#l#l#l#l#l#l#l#l#l#l#l"};
