/* XPM */
static char *dummy[]={
"64 64 22 1",
"t c #101010",
"h c #111111",
"f c #121212",
"b c #131313",
"p c #141414",
"n c #151515",
"c c #161616",
"e c #171717",
"k c #181818",
"q c #191919",
"g c #1a1a1a",
"i c #1b1b1b",
"o c #1c1c1c",
"m c #1d1d1d",
"a c #1e1e1e",
"l c #1f1f1f",
"d c #202020",
"j c #212121",
". c #222222",
"# c #232323",
"r c #242424",
"s c #252525",
"..........#abccba##.........#defghi.#.........#jghihkj#.........",
"l#......#mckdkkdeno##.....#dkcmapdgni.#.....#jgnidplonkd#.....#.",
"ned#.##mnel##oo##lena####deno##jk##jqpi.#.#.gpg.#.kj#.onkj#.##op",
"#mncccccl#..#oo#..#lcccccpo##..jk#..#jqncnepgj#...kj..#.ineccned",
".#rbaeqs#...#oo#...#sgclfr#....jk#....rdh.tjr.....kj....rrhjpos#",
"#lenppcqd#..#oo#..#dqcpbcca##..jk#..#.ocnbnco.#...kj..##mcnbpcgj",
"eelsglrocqj##oo##jgnm#lqsleea#.jk##.ing.#e#jqno##.kj##ackdrkj#in",
"l###ga##.ocg.gg.qco###ag#.#leelln.ongj#..k..#dkcm.ndaeed#.#kd.#.",
"...#ga#..#.mpccpm.#..#ag#..##lefqfgj#....k....#dgfqfkd#...#kd...",
"...#ga#...#jpqqp.#...#ag#...##gfahl#.....k....##ahlho##...#kd...",
".#.#ga#.#dqcmeeacqd#.#ag#.#.iciobakca#...k..#.mcqmfogci.#.#kd..#",
"ni.rilrjqnm#rmmr.mekdrlir.ingj#.qr#leca##q##mnkd##q.#jqno#rqjrde",
".gnibeqcm##.#oo#.##mnqebing.#..jk#.##leeghgckd#...kj..#jkngfkkca",
".##baekr#...#oo#...#sqcaf##....jk#....rlhjtdr.....kj....##hjpor#",
"#jqbcppi.#..#oo#..#.oppcfkj#...jk#..##acfefcl#....kj...#dkfebpm#",
"qpi#djjkpo###oo##.opkjjd#ipkj#.jk###mncl.l#ancl#..kj.#dkpo#d.dep",
"i.#....#dkno#ii#onkd#....#.opqjjc#acca#....##mcel.cjdkpo##....#d",
"#........#dqpnnpqd#........#.inpcpea##.......##mebcbco.#........",
"..........##bggb##..........##ifdtd#...........rltjhm##.........",
".#......#jgngnningj#......##mnkqficed#.......#leeifgecm##......#",
"no#####jqpg.rmmr.gpq.#####mned#.kr#mned#####lcca##k.#leca#####jk",
"denoqigpgj#.#oo#.#.gpiiqmned#..jk#.#.mnkokmenm##..kj..#lcnmqoqpi",
".#jfoce##...#oo#...##enohj#....jk#...##mhlta##....kj....#dtabq##",
"#.ofepna##..#oo#..##anpefo.#...jk#...#dkhqhqj#....kj...#jifkbel#",
"ing#eojkca#.#oo#.#ackjme#gni.#.jk#.#dkcajn.mckj#..kj.#.gni.nldee",
"gj##ga##leearooraekd##ag##.gci.jerdkem##.k.#.ocqj#e.jgci.##kd.#l",
"#..#ga#..#dkcppckd#..#ag#..#.genpnem##...k...#.oenpnci.#..#kd..#",
"...#ga#...#rnggnr#...#ag#...#robjh.r.....k.....rjh.hlr....#kd...",
"#..#ga#.##mekppkcm.#.#ag#..#dkeebqcgj#...k...#jqckbkeqd#..#kd..#",
"el#ril##mcqjromrdkcm##lir#deca#.kr.ing.#.q.#jqco.#k.#mcqd##qd#.o",
"acedcilckd#.#oo#.#denainjkca##.jk#.#.gcilbdgni##..kj.#.mnkdbmmnq",
"##lfqncj#...#oo#...#jcpgfa##...jk#...#.ihohi##....kj...##ahofkj#",
"##lfqpcj#...#oo#...#jcpgha##...jk#...#.ghoti.#....kj...##mtofej#",
"acclimmned#.#oo#.#jepmmilena##.jk#.#.gnglgdqpi##..kj.##mneliaopk",
"cl######onkjromrdkpo######lcna#.kr.gnqj#####jkno.#k.#oned#####.i",
"#.......#.onkppknm.#.......#lecefknqj#.......#dkckfkcel#.......#",
"..........#rpggbr#..........#rifjt.r...........rdt.tar#.........",
"#.......##lecppnel##.......#jqnnbnno##.......#.icnpnng.#.......#",
"qj#.#..#lccaroormncl#..#.#jqpi.jerdkno##.#.#.inqj#e..qpg.#.#.##a",
"ipqjadlcna###oo###ancdda.qpg.#.jk#.#dknmjmjopkj#..kj.#.gpg.mjlnc",
"#.ifeppa##..#oo#..##anpehi.#...jk#...#dkhqtkj#....kj...#jghqfcl#",
".#jfoce##...#oo#...##knofj#....jk#...##mhlha#.....kj....#dhlbg##",
"dkcapqongj#.#oo#.#jgnoqpackd#..jk#.#.mcqobmkca##..kj..#lceabgini",
"cm#rilr.inijrmorjicg.rlir#ackd#.kr.mckd##q##leca##k.#leel##qj#jg",
".#.#ga#.#.icinnicij#.#ag#.##acqqfiekd#...k...#leegfgkea##.#kd..#",
"...#ga#...##nggn##...#ag#...##obdhj#.....k.....#dhjhar#...#kd...",
"#..#ga#..#jgnppngj#..#ag#..#.oepcpkl#....k...##aepcbem.#..#kd...",
"o.##ga##jqco#ii#ocqj##ag###ocqjjcraekl#..k.##aeel#c.dkcm###kd.#d",
"qno#ka.gno###oo##.mnq.akronqj#.jk###acel.c.lcel#..kj.#dknm#cdjkn",
"#jqbnpno.#..#oo#..#.onbnpqj#...jk#..##aebcbel#....kj...#dkbcbcm#",
".##bmckr#...#oo#...#skcah##....jk#....rlhjtdr.....kj....r.hdbir#",
"jgpgeqkpo##.#oo#.##mpkkegpq.#..jk#.##lcnqcgnel#...kj..#jkpgeqenm",
"pg.####denm#rmmr#mned####.gpqj#.qr#denm#####mped##q.#jqpi#####lc",
".#......#lenaecanel#......#.gniibaena##.....##onkmfmqpi.#......#",
"..........#jbkkbj#..........#.qfata##.........##mtlti.#.........",
"#........#.obccbo.#........##acfqhqd#.........#dqhqhel##........",
"a##....#.ipq.gg.qpg.#....##accldn#onqj#.....#denm.ndaccl#.....#.",
"cna#.#.ipqj##oo##jqpi#..#accl#.jk##.ipqj#j#jkpo##.kj##accl#j#.gp",
"#lcpnnpkd#..#oo#..#jqnnnpcl##..jk#..##onpnpno##...kj..##mcpcppqj",
".#rbleqs#...#oo#...#sgclfr#....jk#....rdh.tjr.....kj....rrh.pos#",
"#mckbpeel#..#oo#..#leenbkno##..jk#..#jqcefecgj#...kj..#.inkfnekd",
"cqdrglraeel##oo##lkcarlgrjqno##jk##jqno.#k#.ini.#.kj#.ocgjrkj#mc",
"d#.#ga###aekdkkdkea###ag#.#dqcmapdgco.#..k..#jicilplocqj#.#kd.#.",
"...#ga#...#lpeepl##..#ag#...#jqbohm.#....k....#.ohofgj#...#kd..."};
