/* XPM */
static char *dummy[]={
"64 64 13 1",
"g c #131313",
"f c #141414",
"i c #151515",
"j c #161616",
"e c #171717",
"a c #181818",
"h c #191919",
"c c #1a1a1a",
"d c #1b1b1b",
"# c #1c1c1c",
"b c #1d1d1d",
". c #1e1e1e",
"k c #1f1f1f",
"..#a.....ab....cc....ba.....a#....da.....ab....cc....ba.....a#..",
"..ef#...cgh...biib...agc...#fe....jf#...cgh...biib...agc...#fe..",
".cffe..biff#..affa..#ffjb..effc..cffe..biff#..affa..#ffjb..effc.",
"bifffdkafffe.#iffi#.efffhkcfffibbifffdkafffe.#fffi#.efffhkcfffib",
"affffidfffffceffffecfffffdiffffhhffffidfffffceffffecfffffdiffffh",
"hdccccadcccdacdccdhadcccdaccccdhhdccccadcccdacdccdhadcccdaccccdh",
"e....cf#....ih....ai....#fd....je....cf#....ih....ai....#fd....e",
"fc..bife...aff#..#ffa...jfib..cffc..bife...aff#..#ffa...jfib..cf",
"fib.afffdk#fffe..efff#kcfffa.biffib.afffdk#fffe..efff#kcfffa.bif",
"ffa#ffffibeffffdcffffebiffff#affffa#ffffibeffffdcffffebiffff#aff",
"eeaaeeeeeaeeeeeeeeeeeeaeeeeeaaeeeeaaeeeeeaeeeeeeeeeeeeaeeeeeaaee",
"..ce....bj#....aa....#jb....jc....ce....bj#....aa....#jb....jc..",
".bifd...age...#fi#...egh...cfib..bifd...age...#fi#...egh...cfib.",
".affib.#fffd..effe..dfff#.biffa..affib.#fffd..effe..dfff#.biffa.",
"#ffffh.jfffibdffffdbifffj.affff##ffffh.jfffibcffffdbifffj.affff#",
"efiiiihiiiifajiiiijafiiiihiiiifeefiiiihiiiifajiiiijafiiiihiiiife",
"hbbbb#e#bbbbecbbbbcebbbb#e#bbbbahbbbb#e#bbbbecbbbbcebbbb#e#bbbbh",
"ib...agc...#fe....ef#...cgh...biib...agc...#fe....ef#...cgh...bi",
"fa..#ffjb..effc..cffe..biff#..affa..#ffjb..effc..cffe..biff#..af",
"fi#.efffhkcfffibbifffdkafffe.#fffi#.efffhkcfffibbifffdkafffe.#ff",
"ffecfffffdiffffhhffffidfffffceffffecfffffdiffffhhffffidfffffceff",
"cdcadcccdaccccdhhdccccadcccdacdccdhadcccdaccccdhhdccccadcccdacdc",
"..hi....#fd....je....cf#....ih....ai....#fd....je....cf#....ih..",
".#ffa...jfib..cffc..bife...aff#..#ffa...jfib..cffc..bife...aff#.",
".efff#kcfffa.biffib.afffdk#fffe..efff#kcfffa.biffib.afffdk#fffe.",
"cffffebiffff#affffa#ffffibeffffdcffffebiffff#affffa#ffffibeffffd",
"eeeeeeaeeeeeaaeeeeaaeeeeeaeeeeeeeeeeeeaeeeeeaaeeeeaaeeeeeaeeeeea",
"h....#jb....jc....ce....bj#....aa....#jb....jc....ce....bj#....a",
"i#...egh...cfib..bifd...age...#fi#...egh...cfib..bifd...age...#f",
"fe..dfff#.biffa..affib.#fffd..effe..dfff#.biffa..affib.#fffd..ef",
"ffdbifffj.hffff##ffffh.jfffibcffffdbifffj.affff##ffffh.jfffibcff",
"iijafiiiihiiiifeefiiiihiiiifajiiiijafiiiihiiiifeefiiiihiiiifajii",
"bbcebbbb#e#bbbbahbbbb#e#bbbbecbbbbcebbbb#e#bbbbahbbbb#e#bbbbecbb",
"..ef#...cgh...biib...agc...#fe....ef#...cgh...biib...agc...#fe..",
".cffe..biff#..affa..#ffjb..effc..cffe..biff#..affa..#ffjb..effc.",
"bifffdkafffe.#iffi#.efffhkcfffibbifffdkafffe.#fffi#.efffhkcfffib",
"affffidfffffceffffecfffffdiffffhhffffidfffffceffffecfffffdiffffh",
"hdccccadcccdacdccdhadcccdaccccdhhdccccadcccdacdccdhadcccdaccccdh",
"e....cf#....ih....ai....#fd....je....cf#....ih....ai....#fd....e",
"fc..bife...aff#..#ffa...jfib..cffc..bife...aff#..#ffa...jfib..cf",
"fib.afffdk#fffe..efff#kcfffa.biffib.afffdk#fffe..efff#kcfffa.bif",
"ffa#ffffibeffffdcffffebiffff#affffa#ffffibeffffdcffffebiffff#aff",
"eeaaeeeeeaeeeeeeeeeeeeaeeeeeaaeeeeaaeeeeeaeeeeeeeeeeeeaeeeeeaaee",
"..ce....bj#....aa....#jb....jc....ce....bj#....aa....#jb....jc..",
".bifd...age...#fi#...egh...cfib..bifd...age...#fi#...egh...cfib.",
".affib.#fffd..effe..dfff#.biffa..affib.#fffd..effe..dfff#.biffa.",
"#ffffh.jfffibdffffdbifffj.affff##ffffh.jfffibcffffdbifffj.affff#",
"efiiiihiiiifajiiiijafiiiihiiiifeefiiiihiiiifajiiiijafiiiihiiiife",
"hbbbb#e#bbbbecbbbbcebbbb#e#bbbbahbbbb#e#bbbbecbbbbcebbbb#e#bbbba",
"ib...agc...#fe....ef#...cgh...biib...agc...#fe....ef#...cgh...bi",
"fa..#ffjb..effc..cffe..biff#..affa..#ffjb..effc..cffe..biff#..af",
"fi#.efffakcfffibbifffdkafffe.#fffi#.efffhkcfffibbifffdkafffe.#ff",
"ffecfffffdiffffhhffffidfffffceffffecfffffdiffffhhffffidfffffceff",
"cdcadcccdaccccdhhdccccadcccdacdccdhadcccdaccccdhhdccccadcccdacdc",
"..hi....#fd....je....cf#....ih....ai....#fd....je....cf#....ih..",
".#ffa...jfib..cffc..bife...aff#..#ffa...jfib..cffc..bife...aff#.",
".efff#kcfffa.biffib.afffdk#fffe..efff#kcfffa.biffib.afffdk#fffe.",
"cffffebiffff#affffa#ffffibeffffdcffffebiffff#affffa#ffffibeffffd",
"eeeeeeaeeeeeaaeeeeaaeeeeeaeeeeeeeeeeeeaeeeeeaaeeeeaaeeeeeaeeeeea",
"h....#jb....jc....ce....bj#....aa....#jb....jc....ce....bj#....a",
"i#...egh...cfib..bifd...age...#fi#...egh...cfib..bifd...age...#f",
"fe..dfff#.biffa..affib.#fffd..effe..dfff#.biffa..affib.#fffd..ef",
"ffdbifffj.hffff##ffffh.jfffibcffffdbifffj.affff##ffffh.jfffibcff",
"iijafiiiihiiiifeefiiiihiiiifajiiiijafiiiihiiiifeefiiiihiiiifajii"};
