/* XPM */
static char *dummy[]={
"64 64 154 2",
"#B c #bbbdbf",
"as c #cacccd",
"an c #caccce",
"#N c #cbcdcf",
"ap c #cccecf",
"av c #cccfd0",
"au c #cdcfd0",
"ar c #cdcfd1",
"#S c #ced0d1",
"#J c #ced0d2",
"#K c #cfd1d2",
"#M c #cfd2d3",
"#L c #d0d1d3",
"#8 c #d1d2d3",
".h c #d1d3d4",
"#T c #d3d4d6",
".G c #d4d5d7",
".T c #d4d6d6",
"#2 c #d5d6d7",
".N c #d5d7d7",
".J c #d6d7d8",
".m c #d6d7d9",
".u c #d8d9da",
".F c #d9dada",
"#o c #d9dadb",
"ah c #dadbdc",
"af c #dadcdd",
".g c #dbdcdd",
"#F c #dbdcde",
"#p c #dcdcdd",
"aq c #dcdddd",
".a c #dcddde",
"## c #dcdddf",
"ag c #dcdedf",
"#1 c #dddedf",
"#n c #dddfe0",
"#7 c #dedfe0",
"#O c #dee0e1",
"#t c #dfe0e1",
"aj c #dfe0e2",
"ao c #dfe1e1",
"#d c #dfe1e2",
"#D c #e0e0e1",
".O c #e0e1e1",
".M c #e0e1e2",
"#j c #e0e1e3",
"#R c #e0e2e2",
".s c #e1e1e3",
".K c #e1e2e3",
"ab c #e1e2e4",
"ae c #e1e3e4",
"#k c #e2e2e3",
"#y c #e2e2e4",
".L c #e2e3e3",
"#i c #e2e3e4",
"#r c #e3e3e4",
"#w c #e3e3e5",
"#v c #e3e4e4",
"#b c #e3e4e5",
"#l c #e4e4e5",
"#c c #e4e5e6",
"ak c #e4e5e7",
"ad c #e5e5e6",
"#4 c #e5e6e6",
"#s c #e5e6e7",
"#9 c #e6e6e7",
"aw c #e6e7e7",
"#g c #e6e7e8",
"ac c #e6e8e8",
".W c #e7e7e8",
"#h c #e7e7e9",
"#0 c #e7e8e8",
"#a c #e7e8e9",
"#X c #e8e8e9",
".v c #e8e9e9",
".b c #e8e9ea",
"#Y c #e9e9e9",
"#q c #e9e9ea",
"#5 c #e9e9eb",
".S c #e9eaea",
"#Q c #e9eaeb",
"#E c #eaeaea",
"#e c #eaeaeb",
"#I c #eaebeb",
"am c #eaebec",
"#6 c #ebeaeb",
"#3 c #ebebeb",
".t c #ebebec",
".y c #ebecec",
"#U c #ebeced",
"ai c #ececec",
".k c #ececed",
".V c #eceded",
".x c #ecedee",
".o c #ededed",
".6 c #ededee",
".X c #edeeee",
"aa c #edeeef",
"#V c #eeeeee",
".q c #eeeeef",
".B c #eeefef",
"#u c #eeeff0",
"ax c #efefef",
".z c #efeff0",
".r c #eff0f0",
".n c #f0f0f0",
".Y c #f0f0f1",
".2 c #f0f1f1",
"#W c #f0f1f2",
".I c #f1f1f1",
".j c #f1f1f2",
"#z c #f1f2f2",
"a# c #f2f2f2",
"#A c #f2f2f3",
".1 c #f2f3f3",
".0 c #f3f3f3",
".P c #f3f3f4",
".7 c #f3f4f4",
"#x c #f4f4f4",
".d c #f4f4f5",
".U c #f4f5f5",
".C c #f5f5f5",
".A c #f5f5f6",
"#m c #f5f6f6",
".4 c #f6f6f6",
".5 c #f6f6f7",
"at c #f6f7f7",
".Q c #f7f7f7",
".Z c #f7f7f8",
"al c #f7f8f7",
".D c #f7f8f8",
".i c #f8f8f8",
"#P c #f8f8f9",
".9 c #f8f9f9",
".R c #f9f9f9",
"#H c #f9f9fa",
".H c #f9fafa",
".c c #fafafa",
"#G c #fafafb",
"#f c #fafbfb",
".E c #fbfbfb",
".8 c #fbfbfc",
".p c #fbfcfb",
".l c #fcfcfc",
"#C c #fcfcfd",
".w c #fdfcfc",
".f c #fdfdfd",
"a. c #fdfdfe",
".# c #fefefe",
".3 c #fefeff",
".e c #feffff",
"#. c #fffeff",
"#Z c #fffffe",
"Qt c #ffffff",
"QtQtQtQtQtQtQtQtQtQtQtQtQtQtQtQtQtQtQtQtQtQtQtQtQtQtQtQtQtQtQtQtQtQtQtQtQtQtQtQtQtQtQtQtQtQtQtQtQtQtQtQtQtQtQtQtQtQtQtQtQtQtQtQt",
"QtQtQtQtQtQtQtQtQtQtQtQtQtQtQtQtQtQtQtQtQtQtQtQtQtQtQtQtQtQtQtQtQtQtQtQtQtQtQtQtQtQtQtQtQtQtQtQtQtQtQtQtQtQtQtQtQtQtQtQtQtQtQtQt",
"QtQtQtQtQtQtQtQtQtQtQtQtQtQtQtQtQtQtQtQtQtQtQtQtQtQtQtQtQtQtQtQtQtQtQtQtQtQtQtQtQtQtQtQtQtQtQtQtQtQtQtQtQtQtQtQtQtQtQtQtQtQtQtQt",
"QtQtQtQtQtQtQtQtQtQtQtQtQtQtQtQtQtQtQtQtQtQtQtQtQtQtQtQtQtQtQtQtQtQtQtQtQtQtQtQtQtQtQtQtQtQtQtQtQtQtQtQtQtQt.#.a.bQtQtQtQtQtQtQt",
"QtQtQtQtQtQtQtQtQtQtQtQtQtQtQtQt.c.d.eQtQtQtQtQtQtQtQtQtQtQtQtQtQtQtQtQtQtQtQtQtQtQtQtQtQtQtQtQtQtQtQtQtQt.f.g.h.iQtQtQtQtQtQtQt",
"QtQtQtQtQtQtQtQtQtQtQtQtQtQtQtQt.j.k.lQtQtQtQtQtQtQtQtQtQtQtQtQtQtQtQtQtQtQtQtQtQtQtQtQtQtQtQtQtQtQtQt.f.k.m.h.iQtQt.#.#QtQtQtQt",
"QtQtQtQtQtQtQtQtQtQtQtQtQtQtQtQt.n.o.pQtQtQtQtQtQtQtQtQtQtQtQtQtQtQtQtQtQtQtQtQtQtQtQtQtQtQtQtQtQtQt.f.q.r.s.tQtQt.f.u.vQtQtQtQt",
"QtQtQtQtQtQtQtQtQtQtQtQtQtQt.w.j.x.y.z.AQtQtQtQtQtQtQtQtQtQtQtQtQtQtQtQtQtQtQtQtQtQtQtQtQtQtQtQtQtQt.c.q.B.q.C.D.E.F.G.HQtQtQtQt",
"QtQtQtQtQtQtQtQtQtQtQtQtQt.I.J.a.K.L.M.N.O.fQtQtQtQtQtQtQtQtQtQtQtQtQtQtQtQtQtQtQtQtQtQtQtQtQtQtQtQtQt.P.z.Q.R.S.m.T.cQtQtQtQtQt",
"QtQtQtQtQtQtQtQtQtQtQtQtQt.U.V.S.b.W.W.x.X.fQtQtQtQtQtQtQtQtQtQtQtQtQtQtQtQtQtQtQtQtQtQtQtQtQtQtQtQtQtQt.#Qt.X.#.Y.tQtQtQtQtQtQt",
"QtQtQtQtQtQtQtQtQtQtQtQtQtQtQt.D.Z.0.1QtQtQtQtQtQtQtQtQtQtQtQtQtQtQtQtQtQtQtQtQtQtQtQtQtQtQtQtQtQtQtQtQtQt.R.2.E.n.n.3QtQtQtQtQt",
"QtQtQtQtQtQtQtQtQtQtQtQtQtQtQt.4.A.2.5.#QtQtQtQtQtQtQtQtQtQtQtQtQtQtQtQtQtQtQtQtQtQtQtQtQtQtQtQtQtQtQtQtQt.E.6.B.iQtQtQtQtQtQtQt",
"QtQtQtQtQtQtQtQtQtQtQtQtQtQtQt.C.E.7.EQtQtQtQtQtQtQtQtQtQtQtQtQtQtQtQtQtQtQtQtQtQtQtQtQtQtQtQtQtQtQtQtQtQtQtQtQtQtQtQtQtQtQtQtQt",
"QtQtQtQtQtQtQtQtQtQtQtQtQtQtQt.C.f.8.fQtQtQtQtQtQtQtQtQtQtQtQtQtQtQtQtQt.#.9QtQtQtQtQtQtQtQtQtQtQtQtQtQtQtQtQtQtQtQtQtQtQtQtQtQt",
"QtQtQtQtQtQtQtQtQtQtQtQtQtQtQt.f#.QtQtQtQtQtQtQtQtQtQtQtQtQtQtQtQtQtQtQt.C###a.9QtQtQtQtQtQtQtQtQtQtQtQtQtQtQtQtQtQtQtQtQtQtQtQt",
"QtQtQtQtQtQtQtQtQtQtQtQtQtQtQtQtQtQtQtQtQtQtQtQtQtQtQtQtQtQtQtQtQtQtQtQt.q#b#c#d#e#fQtQtQtQtQtQtQtQtQtQtQtQtQtQtQtQtQtQtQtQtQtQt",
".EQtQtQtQtQtQtQtQtQtQtQtQtQtQtQtQtQtQtQtQtQtQtQtQtQtQtQtQtQtQtQtQtQtQtQt.B#b#g#h#i#j.6.lQtQtQtQtQtQtQtQtQtQtQtQtQtQtQtQtQtQtQt.E",
"#k#l#mQtQtQtQtQtQtQtQtQtQtQtQtQtQtQtQtQtQtQtQtQtQtQtQtQtQtQtQtQtQtQtQtQt.Q.K#g#g#g#g#i.K.2.#QtQtQtQtQtQtQtQtQtQtQtQtQtQtQt.A#l#k",
".9.W.a#mQtQtQtQtQtQtQtQtQtQtQtQtQtQtQtQtQtQtQtQtQtQtQtQtQtQtQtQtQtQtQtQt.H#n#g#g#g#g#a#g#o.0QtQtQtQtQtQtQtQtQtQtQtQtQtQt.A#p.W.c",
"Qt.##q#b.#QtQtQtQtQtQtQtQtQtQtQtQtQtQtQtQtQtQtQtQtQtQtQtQtQtQtQtQtQtQtQt.9#r#j#s#a#s#i#t.q#uQtQtQtQtQtQtQtQtQtQtQtQtQt.##v.S#w.0",
".tQt#x.M.EQtQtQtQtQtQtQtQtQtQtQtQtQtQtQtQtQtQtQtQtQtQtQtQtQtQtQtQtQtQtQtQt.#.j#y#t#b.y.b#z#zQtQtQtQtQtQtQtQtQtQtQtQtQt.E.O.4#A#B",
".6Qt.C.M.EQtQtQtQtQtQtQtQtQtQtQtQtQtQtQtQtQtQtQtQtQtQtQtQtQtQtQtQtQtQtQtQtQtQt.f.q.HQt#C.iQtQtQtQtQtQtQtQtQtQtQtQtQtQt.E#D.AQt.b",
"Qt.##E#rQtQtQtQtQtQtQtQtQtQtQtQtQtQtQtQtQtQtQtQtQtQtQtQtQtQtQtQtQtQtQtQtQtQtQtQtQtQtQtQtQtQtQtQtQtQtQtQtQtQtQtQtQtQtQtQt#r#e.#Qt",
".R.W#p.CQtQtQtQtQtQtQtQtQtQtQtQtQtQtQtQtQtQtQtQtQtQtQtQtQtQtQtQtQtQtQtQtQtQtQtQtQtQtQtQtQtQtQtQtQtQtQtQtQtQtQtQtQtQtQtQt.A#F.W.R",
".K#v.CQtQtQtQtQtQtQtQtQtQtQtQtQtQtQtQtQtQtQtQtQtQtQtQtQtQtQtQtQtQtQtQtQtQtQtQtQtQtQtQtQtQtQtQtQtQtQtQtQtQtQtQtQtQtQtQtQtQt.A#r.K",
"#GQtQtQtQtQtQtQtQtQtQtQtQtQtQtQtQtQtQtQtQtQtQtQtQtQtQtQtQtQtQtQtQtQtQtQtQtQtQtQtQtQtQtQtQtQtQtQtQtQtQtQtQtQtQtQtQtQtQtQtQtQtQt.c",
"QtQtQtQtQtQtQtQtQtQtQtQtQtQtQtQtQtQtQtQtQtQtQtQtQtQtQtQtQtQtQtQtQtQtQtQtQtQtQtQtQtQtQtQtQtQtQtQtQtQtQtQtQtQtQtQtQtQtQtQtQtQtQtQt",
"QtQtQtQtQtQtQtQtQtQtQtQtQtQtQtQt.f.#QtQtQtQtQtQtQtQtQtQtQtQtQtQtQtQtQtQtQtQtQtQtQtQtQtQtQtQtQtQtQtQtQtQtQtQtQtQtQtQtQtQtQtQtQtQt",
"QtQtQtQtQtQtQtQtQtQtQtQtQtQtQt.E.y.B#HQtQtQtQtQtQtQtQtQtQtQtQtQtQtQtQtQtQtQtQtQtQtQtQtQtQtQtQtQtQtQtQtQtQtQtQtQtQtQtQtQtQtQtQtQt",
"QtQtQtQtQtQtQtQtQtQtQtQtQtQtQt.K#o#I#q.P.#QtQtQtQtQtQtQtQtQtQtQtQtQtQtQtQtQtQtQtQtQtQtQtQtQtQtQtQtQtQtQtQtQtQtQtQtQtQtQtQtQtQtQt",
"QtQtQtQtQtQtQtQtQtQtQtQtQtQt#A#J#K#L.b#e.fQtQtQtQtQtQtQtQtQtQtQtQtQtQtQtQtQtQtQtQtQtQtQtQtQtQtQtQtQtQtQtQtQtQtQtQtQtQtQtQtQtQtQt",
"QtQtQtQtQtQtQtQtQtQtQtQtQt.f.J#M.h.h#N.qQtQtQtQtQtQtQtQtQtQtQtQtQtQtQtQtQtQtQtQtQtQtQtQtQtQtQtQtQtQtQtQtQtQtQtQtQtQtQtQtQtQtQtQt",
"QtQtQtQtQtQtQtQtQtQtQtQtQt#b#N.h.h#K#OQtQtQtQtQtQtQtQtQtQtQtQtQtQtQtQtQtQtQtQtQtQtQtQtQtQtQtQtQtQtQtQtQtQtQtQtQtQtQtQtQtQtQtQtQt",
"QtQtQtQtQtQtQtQtQtQtQtQt#P#Q#R#S#K#T#HQtQtQtQtQtQtQtQtQtQtQtQt.i#z.1.8QtQtQtQtQtQtQtQtQtQtQtQtQtQtQtQtQtQtQtQtQtQtQtQtQtQtQtQtQt",
"QtQtQtQtQtQtQtQtQtQtQtQt.f.z.0.q.h#UQtQtQtQtQtQtQtQtQtQtQtQt#x.q.H.Z.k.cQtQtQtQtQtQtQtQtQtQtQtQtQtQtQtQtQtQtQtQtQtQtQtQtQtQtQtQt",
"QtQtQtQtQtQtQtQtQtQtQtQtQtQt#x.6.k.#QtQtQtQtQtQtQtQtQtQtQt.##VQtQtQt.H.rQtQtQtQtQtQtQtQtQtQtQtQtQtQtQtQtQtQtQtQtQtQtQtQtQtQtQtQt",
"QtQtQtQtQtQtQtQtQtQtQtQtQtQtQt#C.#QtQtQtQtQtQtQtQtQtQtQtQt.f.YQtQtQt.f.YQtQtQtQtQtQtQtQtQtQtQtQtQtQtQtQtQtQtQtQtQt.fQtQtQtQtQtQt",
"QtQtQtQtQtQtQtQtQtQtQtQtQtQtQtQtQtQtQtQtQtQtQtQtQtQtQtQtQt.#.q.l#W.5.4#AQtQtQtQtQtQtQtQtQtQtQtQtQtQtQtQtQtQtQtQt.i#g#X.#QtQtQtQt",
"QtQtQtQtQtQtQtQtQtQtQtQtQtQtQtQtQtQtQtQtQtQtQtQtQtQtQtQtQtQt.Z.1.V.d.B.fQtQtQtQtQtQtQtQtQtQtQtQtQtQtQtQtQtQtQt.l.v#z#YQtQtQtQtQt",
"QtQtQtQtQtQtQtQtQtQtQtQtQtQtQtQtQtQtQtQtQtQtQtQtQtQtQtQtQtQt#Z.b#0#0.XQtQtQtQtQtQtQtQtQtQtQtQtQtQtQtQtQtQtQtQt#e.Y#l#0QtQtQtQtQt",
"QtQtQtQtQtQtQtQtQtQtQtQtQtQtQtQtQtQtQtQtQtQtQtQtQtQtQtQtQtQtQt#1.u#2#QQtQtQtQtQtQtQtQtQtQtQtQtQtQtQtQtQt.E.0#3.z#I#4.fQtQtQtQtQt",
"QtQtQtQtQtQtQtQtQtQtQtQtQtQtQtQtQtQtQtQtQtQtQtQtQtQtQtQtQtQtQt.4#5#6.EQtQtQtQtQtQtQtQtQtQtQtQtQtQtQtQt.9#a.0.C.t#a.5QtQtQtQtQtQt",
"QtQtQtQtQtQtQtQtQtQtQtQtQtQtQtQtQtQtQtQtQtQtQtQtQtQtQtQtQtQtQtQtQtQtQtQtQtQtQtQtQtQtQtQtQtQtQtQtQtQtQt.X.4.EQt#U.8QtQtQtQtQtQtQt",
"QtQtQtQtQtQtQtQtQtQtQtQtQtQtQtQtQtQtQtQtQtQtQtQtQtQtQtQtQtQtQtQtQtQtQtQtQtQtQtQtQtQtQtQtQtQtQtQtQtQtQt.z#7#8Qt.k.cQtQtQtQtQtQtQt",
"QtQtQtQtQtQtQtQtQtQtQtQtQtQtQtQtQtQtQtQtQtQtQtQtQtQtQtQtQtQtQtQtQtQtQtQtQtQtQtQtQtQtQtQtQtQtQtQtQtQtQt.R#t#9.B#IQtQtQtQtQtQtQtQt",
"QtQtQtQtQtQtQtQtQtQtQtQtQtQtQtQtQtQtQtQtQtQtQtQtQtQtQtQtQtQtQtQtQtQtQtQtQtQtQtQtQtQtQtQtQtQtQtQtQtQtQtQt.E#z.PQtQtQtQtQtQtQtQtQt",
"QtQtQtQtQtQtQta.a##GQtQtQtQtQtQtQtQtQtQtQtQtQtQtQtQtQtQtQtQtQtQtQtQtQtQtQtQtQtQtQtQtQtQtQtQtQtQtQtQtQtQtQtQtQtQtQtQtQtQtQtQtQtQt",
"QtQtQtQtQtQt.U.k.IaaQtQtQtQtQtQtQtQtQtQtQtQtQtQtQtQtQtQtQtQtQtQtQtQtQtQtQtQtQtQtQtQtQtQtQtQtQtQtQtQtQtQtQtQtQtQtQtQtQtQtQtQtQtQt",
"QtQtQtQt#P.6#z.#Qt.j.Q.#.#QtQtQtQtQtQtQtQtQtQtQtQtQtQtQtQtQtQtQtQtQtQtQtQtQtQtQtQtQtQtQtQtQtQtQtQtQtQtQtQtQtQtQtQtQtQtQtQtQtQtQt",
"QtQtQtQt.S.cQtQtQt.f#s.M.jQtQtQtQtQtQtQtQtQtQtQtQtQtQtQtQtQtQtQtQtQtQtQtQtQtQtQtQtQtQtQtQtQtQtQtQtQtQtQtQtQtQtQtQtQtQtQtQtQtQtQt",
"QtQtQtQt.4.0QtQtQtQt#4ab.WQtQtQtQtQtQtQtQtQtQtQtQtQtQtQtQtQtQtQtQtQtQtQtQtQtQtQtQtQtQtQtQtQtQtQtQtQtQtQtQtQtQtQtQtQtQtQtQtQtQtQt",
"QtQtQtQtQt.q.EQtQtQt.b#b#i.EQtQtQtQtQtQtQtQtQtQtQtQtQtQtQtQtQtQt.i#Q.EQtQtQtQtQtQtQtQtQtQtQtQtQtQtQtQtQtQtQtQtQtQtQtQtQtQtQtQtQt",
"QtQtQtQt.lac#7.H.4adae#iaf.HQtQtQtQtQtQtQtQtQtQtQtQtQtQtQtQtQt.R.k.i.y.RQtQtQtQtQtQtQtQtQtQtQtQtQt.#.f.f.f.f.#QtQtQtQtQtQtQtQtQt",
"QtQtQtQt.iag#c#t#i#i#iah#t.#QtQtQtQtQtQtQtQtQtQtQtQtQtQtQtQt.E.t.lQt.lai.9QtQtQtQtQtQtQtQtQtQtQtQt.B.Y.Y.Y.j.k.RQtQtQtQtQtQtQtQt",
"QtQtQtQtQt#Aajak#1#0.H.l.lQtQtQtQtQtQtQtQtQtQtQtQtQtQtQtQt.R#b.fQtQtQt.l.v.#QtQtQtQtQtQtQtQtQtQt.##zQt.Z#zQt.4.QQtQtQtQtQtQtQtQt",
"QtQtQtQtQtQt.B##.malQtQtQtQtQtQtQtQtQtQtQtQtQtQtQtQtQtQtQtaman.SQtQt.##V.4QtQtQtQtQtQtQtQtQtQtQtQt#b#7aoao#t.g.5QtQtQtQtQtQtQtQt",
"QtQtQtQtQtQtQta..RQtQtQtQtQtQtQtQtQtQtQtQtQtQtQtQtQtQtQtQt.P.6ap#0.#.B.CQtQtQtQtQtQtQtQtQtQtQtQtQtaqarapas#S#SatQtQtQtQtQtQtQtQt",
"QtQtQtQtQtQtQtQtQtQtQtQtQtQtQtQtQtQtQtQtQtQtQtQtQtQtQtQt.#.XQt#Aar#7.AQtQtQtQtQtQtQtQtQtQtQtQtQtQtaqauarav#S#SatQtQtQtQtQtQtQtQt",
"QtQtQtQtQtQtQtQtQtQtQtQtQtQtQtQtQtQtQtQtQtQtQtQtQtQtQt.#.X.A.z.zaw.nQtQtQtQtQtQtQtQtQtQtQtQtQtQt.##Q.q.t.S.q#a.QQtQtQtQtQtQtQtQt",
"QtQtQtQtQtQtQtQtQtQtQtQtQtQtQtQtQtQtQtQtQtQtQtQtQtQt.#ax.d.q#m.#QtQtQtQtQtQtQtQtQtQtQtQtQtQtQtQt.#.YQt.4.2a..d.QQtQtQtQtQtQtQtQt",
"QtQtQtQtQtQtQtQtQtQtQtQtQtQtQtQtQtQtQtQtQtQtQtQtQtQta#.X.z.CQtQtQtQtQtQtQtQtQtQtQtQtQtQtQtQtQtQtQt.P.v.I.1#q.q.EQtQtQtQtQtQtQtQt",
"QtQtQtQtQtQtQtQtQtQtQtQtQtQtQtQtQtQtQtQtQtQtQtQtQtQt.l#I.UQtQtQtQtQtQtQtQtQtQtQtQtQtQtQtQtQtQtQtQtQt.Q.#Qtat.eQtQtQtQtQtQtQtQtQt",
"QtQtQtQtQtQtQtQtQtQtQtQtQtQtQtQtQtQtQtQtQtQtQtQtQtQtQtQtQtQtQtQtQtQtQtQtQtQtQtQtQtQtQtQtQtQtQtQtQtQtQtQtQtQtQtQtQtQtQtQtQtQtQtQt",
"QtQtQtQtQtQtQtQtQtQtQtQtQtQtQtQtQtQtQtQtQtQtQtQtQtQtQtQtQtQtQtQtQtQtQtQtQtQtQtQtQtQtQtQtQtQtQtQtQtQtQtQtQtQtQtQtQtQtQtQtQtQtQtQt"};
