/* XPM */
static char *dummy[]={
"64 64 18 1",
"f c #e6e6e6",
"j c #e7e7e7",
"n c #e9e9e9",
"g c #eaeaea",
"i c #ebebeb",
"p c #ededed",
"h c #eeeeee",
"l c #efefef",
"a c #f3f3f3",
"d c #f4f4f4",
"# c #f6f6f6",
"o c #f9f9f9",
"b c #fafafa",
"k c #fbfbfb",
"m c #fcfcfc",
"e c #fdfdfd",
"c c #fefefe",
". c #ffffff",
"................................................................",
"................................................................",
"................................................................",
"................................................................",
".....#abcdde.........#abcdde.........#abcdde.........#abcdde....",
"....dffghffhe.......dffghffhe.......dffghffhe.......dffghffhe...",
"....ifjjfjjjk.......ifjjfjjjk.......ifjjfjjjk.......ifjjfjjjk...",
"....lfjjjjfgm.......lfjjjjfgm.......lfjjjjfgm.......lfjjjjfgm...",
"....ehfjjfgb........ehfjjfgb........ehfjjfgb........ehfjjfgb....",
".....ehfjno..........ehfjno..........ehfjno..........ehfjno.....",
"......epnb............epnb............epnb............epnb......",
".......mb..............mb..............mb..............mb.......",
"................................................................",
"................................................................",
"................................................................",
"................................................................",
"................................................................",
"................................................................",
"................................................................",
"................................................................",
"cdde.........#abcdde.........#abcdde.........#abcdde.........#ab",
"hffhe.......dffghffhe.......dffghffhe.......dffghffhe.......dffg",
"fjjjk.......ifjjfjjjk.......ifjjfjjjk.......ifjjfjjjk.......ifjj",
"jjfgm.......lfjjjjfgm.......lfjjjjfgm.......lfjjjjfgm.......lfjj",
"jfgb........ehfjjfgb........ehfjjfgb........ehfjjfgb........ehfj",
"jno..........ehfjno..........ehfjno..........ehfjno..........ehf",
"nb............epnb............epnb............epnb............ep",
"b..............mb..............mb..............mb..............m",
"................................................................",
"................................................................",
"................................................................",
"................................................................",
"................................................................",
"................................................................",
"................................................................",
"................................................................",
".....#abcdde.........#abcdde.........#abcdde.........#abcdde....",
"....dffghffhe.......dffghffhe.......dffghffhe.......dffghffhe...",
"....ifjjfjjjk.......ifjjfjjjk.......ifjjfjjjk.......ifjjfjjjk...",
"....lfjjjjfgm.......lfjjjjfgm.......lfjjjjfgm.......lfjjjjfgm...",
"....ehfjjfgb........ehfjjfgb........ehfjjfgb........ehfjjfgb....",
".....ehfjno..........ehfjno..........ehfjno..........ehfjno.....",
"......epnb............epnb............epnb............epnb......",
".......mb..............mb..............mb..............mb.......",
"................................................................",
"................................................................",
"................................................................",
"................................................................",
"................................................................",
"................................................................",
"................................................................",
"................................................................",
"cdde.........#abcdde.........#abcdde.........#abcdde.........#ab",
"hffhe.......dffghffhe.......dffghffhe.......dffghffhe.......dffg",
"fjjjk.......ifjjfjjjk.......ifjjfjjjk.......ifjjfjjjk.......ifjj",
"jjfgm.......lfjjjjfgm.......lfjjjjfgm.......lfjjjjfgm.......lfjj",
"jfgb........ehfjjfgb........ehfjjfgb........ehfjjfgb........ehfj",
"jno..........ehfjno..........ehfjno..........ehfjno..........ehf",
"nb............epnb............epnb............epnb............ep",
"b..............mb..............mb..............mb..............m",
"................................................................",
"................................................................",
"................................................................",
"................................................................"};
