/* XPM */
static char *dummy[]={
"64 64 100 2",
"Qt c #000000",
".7 c #000001",
"#E c #000100",
".m c #000101",
"#D c #010100",
".d c #010101",
"#e c #010102",
"#d c #010202",
"#H c #020101",
".R c #020201",
".l c #020202",
".L c #020203",
"#k c #020302",
".G c #020303",
".o c #030303",
"#p c #030304",
".z c #030404",
".s c #040404",
"#h c #040405",
"#G c #040504",
"## c #040505",
"#A c #050404",
"#g c #050405",
".h c #050505",
".X c #050506",
".9 c #050606",
".n c #060506",
".# c #060606",
".e c #060607",
"#w c #060707",
".b c #070707",
"#b c #070708",
"#s c #070807",
"#a c #070808",
"#m c #080807",
".t c #080808",
".S c #080809",
"#u c #080909",
"#f c #090809",
"#x c #090908",
".U c #090909",
".P c #09090a",
"#l c #090a0a",
".Q c #0a0a0a",
".T c #0a0a0b",
".V c #0a0b0b",
"#j c #0b0a0b",
".W c #0b0b0b",
".2 c #0b0b0c",
"#B c #0b0b0d",
".4 c #0b0c0c",
".3 c #0c0c0c",
".E c #0c0c0d",
".1 c #0c0d0d",
"#r c #0d0c0d",
".q c #0d0d0d",
".A c #0d0d0e",
"#F c #0d0d0f",
".D c #0d0e0e",
"#n c #0e0d0e",
".B c #0e0e0e",
".x c #0e0e0f",
".v c #0e0f0f",
"#o c #0f0e0f",
".p c #0f0f0f",
".c c #0f0f10",
"#c c #0f100f",
".6 c #0f1010",
".g c #101010",
".i c #101011",
".k c #101111",
".u c #111111",
".Y c #111112",
".N c #111212",
".Z c #121112",
".0 c #121211",
".a c #121212",
".f c #121213",
".j c #121313",
".J c #131313",
".O c #131314",
".5 c #131414",
"#z c #131415",
".M c #141314",
".H c #141414",
".I c #141415",
".K c #141515",
".F c #151515",
".8 c #151516",
"#y c #151616",
"#t c #151617",
"#v c #161616",
"#i c #161617",
"#q c #161717",
"#. c #171717",
".C c #171718",
".y c #171818",
".w c #181818",
".r c #181819",
"#C c #181919",
"QtQt.#.a.b.c.dQtQtQt.e.f.#.g.dQtQtQt.e.f.#.g.dQtQtQt.e.f.#.g.dQtQtQt.h.f.#.i.dQtQtQt.h.j.#.g.dQtQtQt.h.j.h.k.l.mQtQt.h.j.n.g.l.m",
".c.oQt.p.q.r.s.t.u.oQt.v.q.w.s.t.u.oQt.x.q.y.z.t.k.oQt.x.A.y.s.t.k.oQt.x.B.C.s.t.k.oQt.x.A.C.s.b.i.oQt.x.A.y.h.b.g.oQt.D.B.C.h.b",
".E.F.d.G.a.#.d.H.D.I.d.l.a.#.d.J.D.K.d.l.a.#.d.H.D.K.d.L.u.#.d.H.D.I.d.o.a.e.d.M.q.I.d.l.N.e.d.H.q.F.d.l.f.e.d.H.q.I.d.l.f.b.d.O",
".c.t.dQtQtQt.v.P.v.t.d.dQtQt.v.Q.A.t.d.dQtQt.B.Q.B.t.R.dQtQt.B.Q.A.S.l.dQtQt.B.T.B.S.d.mQtQt.q.T.A.U.d.dQtQt.A.V.q.U.d.dQtQt.q.W",
".JQt.b.u.p.g.g.#.NQt.b.u.p.g.g.X.YQt.b.u.p.i.Z.h.aQt.e.u.p.i.u.h.0Qt.e.u.p.i.a.h.aQt.h.N.p.i.a.h.fQt.h.N.p.i.a.h.aQt.h.N.p.g.u.h",
".oQt.E.E.#.#Qt.x.tQt.E.E.#.#Qt.x.tQt.E.E.#.#Qt.q.tQt.E.E.#.#.m.q.tQt.E.E.#.#Qt.q.tQt.U.g.#.#Qt.A.tQt.U.g.#.#Qt.q.SQt.U.g.#.#.d.q",
".HQt.h.x.A.p.a.h.aQt.h.x.A.p.a.h.fQt.h.x.A.p.j.h.jQt.h.x.A.c.j.h.JQt.h.x.A.p.f.h.aQt.s.p.A.p.f.h.JQt.s.p.A.p.f.s.fQt.s.p.A.x.Y.h",
".v.U.lQtQtQt.q.T.q.U.lQtQtQt.E.W.q.U.lQtQtQt.1.W.q.U.l.mQtQt.E.W.1.U.o.lQtQt.1.2.3.P.d.dQtQt.3.2.3.Q.d.dQtQt.3.2.3.Q.d.dQtQt.4.E",
".D.H.d.o.H.b.d.5.6.H.d.o.H.t.7.5.p.O.d.o.H.tQt.5.p.5.d.o.5.t.7.O.p.H.d.o.5.tQt.J.p.I.d.G.O.tQt.O.p.8.d.l.J.tQt.J.p.F.d.G.J.SQt.J",
".1QtQt.i.4.y.s.#.A.dQt.i.2.y.o.9.q.dQt.g.W.y.o.h.q.dQt.g.3#..o.9.q.dQt.p.3.C.s.#.B.dQt.c.3.C.s.#.B.dQt.p.3.y.h.#.B.dQt.p.3.w##.#",
".b.t.3.g#a.x.o.t.b.t.3.k#b.p.o.t.b.t.q.k.b.p.o.t.b.t.q.k.b.p.o.S.b.t.q.Y.b.p.o.U.b.t.E.a.#.p.o.U.b.t.E.Y.b#c.o.U.b.t.3.N.#.6.o.U",
".U.U.U.d.O.d.2.x.U.U.U.d.J.d.2.x.U.U.P.d.f.d.2.x.U.U.P.d.O.d.2.x.U.U.Q.d.O.d.2.x.U.U.Q#d.N.d.2.x.U.U.Q#e.a.d.2.x.U.U.Q#d.a.d.2.x",
".x.p.g.s.Y.s.U.Y.x.p.g.s.a.s.U.Y.x.p.g.s.u.s.S.Y.x.p.g.s.a.s.S.Y.x.p.g.s.i.s#f.Y.x.p.6.s.i.h.S.Y.x.p.g.s.i.s.S.Y.x.x.g.s.u#g.S.Y",
".d.d.#.O#h.Y.l.l.d.d.X.J.s.a.l.l.d.d.#.5#h.f.l.l.d.d.#.O.s.a.l.l.d.d.h.H.s.a.l.l.d.d.h.5.s.f.l.l.d.d.h.5.s.a.l.l.d.d.h.5.s.f.o.o",
".J.eQt.3.a#..l.W.I.#Qt.3.a.C.o.W.8.#Qt.4.a.C.o.W.K.#Qt.3.f.C.o.W.8.#Qt.4.f.C.o.Q.8.#Qt.2.f#i.o.P.F.#Qt#j.f#i.s.Q.F.#Qt.W.J#i.s.U",
".Q.I.l.l.E.l.G.J.Q.H.l.l.3.l#k.H.Q.F.l.l.3.l.l.J#l.I.l.l.3.l.l.5.P.I.l.l.3.L.l.M.U.K.d.l.E.l.l.H.U.F.d.l.q.o.l.5.P.F.d.l.1.o.l.5",
".j.h.d.lQt.d.N.b.u.h.d.lQt.d.u.b.u.h.d.lQt.d.u.b.u.h.d.lQt.d.k#b.u.h.d.lQt.d.k#b.k.9.d#dQt.d.u#a.g.#.d#dQtQt.g.t.i.#.7#dQtQt.g.t",
".pQt.U.Y.p.g.q.t.pQt.U.Y.p.g.q#a.pQt.U.Y.p.c.q#m.pQt.U.Y.p.c.q#b.pQt.U.Y.p.g#n.t.gQt.#.J.p.g.B.b.gQt.#.J.p.c.q.b.gQt.#.J.p.c.q.b",
".sQt.E.A.t.t.l.B.UQt.E.A.t.t.l.A.UQt.E.A.t.t.l.E.SQt.E.A.t.t.l.q.UQt.E.A.t.t.l.q.UQt.U.u.t.t.l.3.UQt.U.u.t.S.l.3.PQt.U.u.t.U.l.3",
".FQt.o.Q.Q.W.H.s.J.d.o.Q.Q.W.5.s.O.d.o.Q.Q.W.K.s.O.d.o.Q.Q.W.K.s.H.d.o.Q.Q.W.5.s.H.d.l.Q.Q.W.5.s.O.d.l.Q.Q.W.I.s.H.d.l.Q.Q.2.H.s",
".3.3.l.dQtQt.Q.q.Q.1.l.dQtQt.Q.D.Q.E.l.dQtQt.U.B.Q.1.o.dQtQt.P.B.Q.q.o.lQtQt.U.x.Q.A.d.dQtQt.U#o.U.A#d.dQtQt.S.p.U.B#d.dQtQt.S.p",
".Y.uQt.s#..3Qt.j.5.aQt.s.w.3Qt.j.5.YQt.s#..3Qt.f.5.NQt.s.r.EQt.f.O.aQt.s.w.qQt.a.O.JQt.o.C.qQt.Y.O.fQt.o#i.A.d.a.5.fQt#p#..AQt.a",
".bQtQt.J.b#q.s.o#bQtQt.f.b.y.o.L#bQtQt.f.b.C.o.L.tQtQt.N.b#..o.o.tQtQt.f.b#..s.o.tQtQt.a#b#q.o.o.tQtQt.a.b#..s.o.tQtQt.N#m#i.s.o",
".W.3.g.q.Q.W.s#r.W.3.u.A.Q.3.s.E.W.3.u.A.Q.2.s.E.W.3.u.D.Q.3.s.q.W.3.u.v.P.3.s.q.W.3.u.p.U.1.s.q.W.3.i.v.U.1.s.q.W.3.g.c.U.q.s.q",
".#.#.#Qt.HQt.E.E.#.#.#Qt.HQt.E.E.#.#.#Qt.OQt.E.E.#.#.#Qt.OQt.E.E.#.#.#Qt.OQt.E.E.#.#.#Qt.jQt.3.E.#.#.#Qt.JQt.3.E.#.#.#Qt.OQt.3.E",
".p.c.a.b.c.e.e.u.p.c.a.#.c.e.e.u.p.c.f.b.p.b.e.u.p.c.f#b.p.b.e.u.p.c.f#a.p.b.e.u.p.c.N#s.x#m.e.u.p.c.N#a.x.t.e.u.p.c.Y.b.x#b.e.u",
".dQt.l.H#p.O.l.d.dQt.l.H.s.I.l.d.dQt.l.5.s.O.l.d.dQt.l.I.z.I.o.d.dQt.l.5.o.H.o.d.dQt.l.I.o.H.o.d.dQt.l.I.o.I.o.d.dQt#e.I.o.H#p.d",
".I.WQt.U#i.H.d.x#i.WQt.U#t.I.l.v#q.WQt#u#v.I.l.v#..WQt.S#i.H.l.B#..VQt.t#..I.l.q#q.WQt.t#q.K.l.A.y.WQt.t#q.I.l.q.C.TQt.b#i.I.o.q",
".U.a.l#d.#Qt.h.a.S.a.l#d.#Qt.s.a.S.f.l#d.#Qt#h.f.t.f.l.l.#Qt.s.J.t.f.l.l.#Qt.s.f#b.J.d.d.#Qt.s.f#b.J.d#d#wQt.s.f#b.O.d#d.#Qt.o.J",
".8.o.d.s.o.s.5.h.J.o.d.s.o.s.J.h.J.o.d.s.o.s.J.h.J.o.d.s.o.s.O.h.J.o.d.s.o.s.5.X.f.o.d.s.o.s.J.9.f.s.d.s.o.s.j.X.a.s.d.s.o.s.J.#",
".WQt.T.i.E.q.t.V.qQt.T.i.E.q.t.Q.qQt.T.i.E.q.t.Q.qQt.T.i.E.q.U.U.3Qt.T.i.E.q.U.P.qQt.t.J.E.q.U.U.qQt.t.J.E.q.U.U.qQt.t.J.E.q.U.U",
".bQt.2.g.W.3.h.3.TQt.2.g.W.3.h.3.QQt.2.g.W.3.9.W.TQt.2.g.W.3.#.W.TQt.2.g.W.3.h.2.WQt.t.j.W.3.h.W.WQt.t.j.W.3.h.W.WQt.t.j.W.3.#.W",
".F.l.d.X.h.e.H.s.O.l.d.X.h#w.K.s.J.l.d.X.h#w.K.s.H.l.d.X.h.b.K.s.O.l.d.9.h.#.H.s.5.l.d.X.h.#.5#h.5.l.d.X.h.#.H.h.O.l.d.X.h.#.H.s",
".U.p.o.d.lQt.b.g#u.g.o.d.lQt.#.g#x.c.o.d.oQt.#.k.U.g.o.d.oQt.#.u.t.6.o.l.oQt.#.u.t.g.d.d.LQt.#.u.t.i.d.d.lQt.9.u#b.u#d.l.lQt.h.u",
".O.DQt.b.w.u.d.i#v.DQt.e.w.u.d.g#i.BQt.#.r.u.d.g#y.BQt.#.r.u.d.6#y.DQt.#.r.u.d.g#q.xQt.#.r.Y.d.p#q.BQt.#.w.a.d.p#i.BQt.#.y.Y.d.p",
".oQt.d.I.s#y.s.R.oQt.d.I.s#v.o.d.oQt.d#z#g#v.o.d.oQt.d.5.s#v.z.d.oQt.d.H.s.8.s.l#pQt.7.5###y.s.l#pQtQt.5#A.F.s.l.oQtQt.5.s.8.s.l",
".p.p.J#l.D.U.#.i.p.p.O.Q.q#u.#.i.p.p.J.Q.q.U.#.i.p.p.J.V.q.S.#.i.p.p.J.W.q.P.9.i.p.p.J.V.3#l.9.i.p.p.J.2.3#l.9.i.p.p.J.2.3.Q.9.i",
".#.#.hQt.HQt.E#B.#.#.hQt.HQt.E.E.#.#.hQt.OQt.E.E.#.#.hQt.OQt.E#B.#.#.hQt.IQt.E#B.#.#.hQt.JQt.E#B.#.#.hQt.JQt.E#B.#.#.hQt.5Qt.E#B",
".q.B.a.T.q.P.s.B.q.B.a.V.E.U.s.B.q.B.Y.V.q.Q.s.B.q.B.f.2.3#l.s.B.q.B.a.W.3.Q.s.B.q.B.u.W.4.W.s.B.q.B.Y.4.2.W.s.B.q.B.u.W.2.W.s.B",
"#pQtQt.H###v.o.d.oQtQt.H.s#i.o.d.sQtQt.5.s#i.o.d.sQtQt.O#h#i.s.l.sQtQt.5###y.s.l.sQtQt.O.h#v.s.l.sQtQt.O.h#i.s.l.sQtQt.O.h.8.s.l",
".O.pQt.#.y.c.d.u#y.cQt.#.w.g.d.u.F.pQt.#.w.i.d.u#y.pQt.X.r.i.d.i.8.cQt.9#C.g.d.g#i.pQt.h#C.g.d.i#i.pQt.h.y.i.d.6#v.pQt.h.y.k.d.g",
"#l.x.l.d.dQt#b.c.U.p.l.d.dQt.b.g.U.v.l.d.dQt.b.g.U.c.l.d#eQt.e.g#u.p.l.d.lQt.b.i.t.6.d.d.dQt.e.i.t.g.d.d.dQt.#.u.t.g.d.d.dQt.#.i",
".8.d.l.S.t.U.H.s.H.d.l.S.t.U.I.s.O.d.l.S.t.U.H.s.H.d.l.S.t.U.F.s.H#e.l.S.t.U.F.s.H.l.d.t.t.U.I.s.O.l.d.t.t.U.H.s.H.l.d.t.t.U.I.s",
".bQt.2.x.U.Q.s.3.QQt.2.x.U.Q.s.E.QQt.2.x.U.Q.s.3.QQt.2.x.U.Q.s.W.QQt.2.x.U.Q#h.4.WQt.t.u.U.Q.s.W.TQt.t.u.U.Q.s.W.TQt.t.u.U.Q.h.W",
".3Qt#j.f.x.p.U.Q.qQt#j.f.x.p.U.Q.qQt#j.f.x.p#l.U.qQt#j.f.x.p.Q.U.AQt.T.f.x.p.Q.U.BQt.t.F.x.p.P#x.AQt.t.F.x.p#l.t.BQt.t.F.x.p.Q.U",
".F.o.d.l.d.l.J.h.J.o.d.l.d.l.J.h.f.s.d.l.d.l.j.X.j.s.d.l.d.l.j.h.j.s.d.l.d.l.j.#.a.sQt.l.d.l.j.#.f.sQt.l.d.l.f.#.Y.s.m.l.d.l.a.#",
".U.j.l.l.bQt.s.j#u.j.l.l.bQt.s.j#u.J.l.R#bQt.s.j#u.J.l.l#bQt#p.j.t.O.o.l.tQt#p.J#a.J.d.l.tQt.o.O.t.O.d.l#a#D.o.J.t.O#d.l.b#E.o.J",
".H#lQt.P#v.F.l.B#i.UQt.Q#v.F.l.D#q.QQt.U#v.F.l.D#q.QQt.U#v.F.l.q.C.QQt.U#q.F.l.3.C.QQt.U#v.F.l.3.C.QQt.S#i.8.l.3#q.PQt.t#y.K.L.3",
".dQt.o.5.s.5.o.l.dQt.o.I.z.J.o.d.dQt.s.5#p.H.o.d.dQt.s.K.s.H.o.l.dQt.o.5.o.5.o.l.dQt.G.I.z.5.o.l.dQt.o.I.o.5.o.l.dQt.o.I.o.O.s.l",
".x.x.f#w.g.#.b.i.x.x.a.#.6.#.b.i.x.x.a.b.p.#.b.i.x.x.a.b.c.#.b.i.x.x.a.b.c#w.b.i.x.x.N#a.v.b.b.i.x.x.a.t.v.b.b.i.x.x.N#b.v#w.b.i",
".t.t.bQt.HQt.E#F.t.t.bQt.HQt.E#F.t.t.bQt.jQt.E#F.t.t.bQt.JQt.E.A.t.t.bQt.OQt.E.A.t.t.bQt.jQt.E.A.t.t.bQt.JQt.E.A.t.t.bQt.OQt.E.A",
".U.Q.p.B.Q.3.o.Q.U.Q.p.B.Q.E.o.Q.U.Q.p.B.Q.E.o.Q.U.Q.x.p#l.q.o.Q.U.Q.x.p.P.q.o.Q.U.Q.x.c.U.q.o.Q.U.Q.B.p#u.q.o.Q.U.Q.D.p.S.B.o.Q",
".tQtQt.f#a.w.o.o.tQtQt.a#b.y.o.o.tQtQt.a#a.r.s.o.UQtQt.N.t.C.s.s.UQtQt.Y#a.C.s.s.PQtQt.Y.t.C.s.s.PQtQt.Y.t.C#G#p.QQtQt.Y.t.C.s.o",
".i.aQt.s#i.W#D.J.a.jQt.s.C.WQt.J.a.fQt.z#..2.d.a.a.jQt.s.C.2Qt.f.a.JQt#p#..WQt.j.j.OQt.o#q.4Qt.f.a.JQt.o#i.4.d.f.f.JQt.o#i.3.d.f",
".E.W.l.mQtQt.V.q.W.2.l.mQtQt.T.q.W.4.l.mQtQt.Q.D.Q.3.l.dQtQt.Q.A.W.4.G.dQtQt.Q.A.Q.1.d.mQtQt.P.B#l.q.d.dQtQt.U.B.Q.1.d.dQtQt.U.B",
".FQt.z.q.3.q.H.s.OQt.z.q.3.A.H.s.HQt.z.q.3.A.I.s.JQt.z.q.3.A.I.s.5.7.z.q.3.q.5.s.O.d.o.q.3.q.5.s.J.d.o.q.3.q.I.s.H.d.o.q.3.q.H.s",
".sQt.E.E.#.b.d.B.tQt.E.E.#.b.d.B#uQt.E.E.#.b.d.E.tQt.E.E.#.b.d.q.SQt.E.E.#.b.d.q.UQt.U.g.#.b.d.q.UQt.U.g.#.b.l.q.UQt.U.g.#.b.l.q",
".gQt.S.Y.p.g.q.t.gQt.S.Y.p.g.A#a.6Qt.S.Y.p.g.D.b.6Qt.S.Y.p.g.v.b.gQt.S.Y.p.g.v.b.uQt.#.J.p.g.p.#.gQt.#.J.p.g.D.#.iQt.#.J.p.g.B.#",
".f.h.dQtQtQt.u.b.u.#.dQtQtQt.i.b.g.#.dQtQtQt.g#b.i.#.dQtQtQt.g.t.g.#.d.dQtQt.6.t.g.#.d.mQtQt.g.t.6.#.d.mQtQt.6.U.6.b.m.mQtQt.c.U",
".Q.K.l.l.q.o.l.J.V.K.l.l.q.o.l.H.W.F.l.l.q.o.l.5.V.I.l.l.q.o.l.H.V.I.l.l.B.o.l.H.Q.I.d.l.B.o#e.H.Q.F.d.l.B.o.d.H.Q.I.d.l.D.s.d.H",
".a.hQt.q.Y.y.o.Q.5.hQt.q.a#..o.Q.H.hQt.E.Y#..o#l.H.hQt.3.a#..o.U.H.hQt.3.a#..o.U.H.hQt.3.a#..o.t.5.hQt.2.a.C.s#u.5.hQt.3.a#..s.t",
".o.o.t.O#A.Y.o.s.o.o#b.j.h.a.l.s.o.o.t.5.h.Y.l.s.o.o.t.O.h.a.G.s.o.o#b.O.s.N.L.s.o.o.b.O.s.N.L.s.o.o.b.5.s.f.o.h.o.o.b.O.s.N.o.h",
".E.E.x.s.Y.o.U.c.E.E.x.s.a.o.U.g.E.E.v.s.u.o.U.g.E.E.v.s.Y.z.U.c.E.E.x.s.k.s.U.c.E.E.v.s.k.s.U.c.E.E.v.s.u.s.U.c.E.E.x.s.N.s.U.c",
".W.W.Q.d.J.d.2.i.W.W.W.d.J.d.2.i.W.W.W.d.f.d.2.i.W.W.W.d.f.d.2.i.W.W.W.d.J.l.2.i.W.W.W.d.N#H.2.i.W.W.W.d.a.l.2.i.W.W.W.d.N.l.2.i"};
